# xmcd CD database file
#
# Track frame offsets:
#	8190
#	47584
#	82829
#	112231
#	138747
#	174941
#	204468
#	239394
#
# Disc length: 3666 seconds
#
# Revision: 14
# Processed by: cddbd v1.5.2PL0 Copyright (c) Steve Scherf et al.
# Submitted via: CDex 1.83
#
DISCID=700de508
DTITLE=My Dying Bride - Songs Of Darkness, Words Of Light
DYEAR=2004
DGENRE=Doom Metal
TTITLE0=The Wreckage Of My Flesh
TTITLE1=The Scarlet Garden
TTITLE2=Catherine Blake
TTITLE3=My Wine In Silence
TTITLE4=The Prize Of Beauty
TTITLE5=The Blue Lotus
TTITLE6=And My Fury Stands Ready
TTITLE7=A Doomed Lover
EXTD=YEAR: 2004
EXTT0=
EXTT1=
EXTT2=
EXTT3=
EXTT4=
EXTT5=
EXTT6=
EXTT7=
PLAYORDER=
